<svg width="270" height="286" viewBox="0 0 270 286" fill="none" xmlns="http://www.w3.org/2000/svg">
<g clip-path="url(#clip0_13_908)">
<path d="M251.86 3.58734e-05C258.02 -0.00996413 262.97 2.07004 266.57 7.10004C268.62 9.96004 269.47 13.22 269.46 16.75C269.44 59.06 269.48 104.79 269.42 147.1C269.41 156.99 262.69 163.7 252.89 163.81C244.92 163.9 236.96 163.86 228.99 163.82C225.17 163.8 224.78 163.31 224.78 159.1C224.78 154.95 225.14 154.53 229.1 154.51C236.65 154.47 244.21 154.53 251.76 154.48C257.66 154.44 260.1 152.05 260.1 146.17C260.12 104.48 260.12 59.37 260.1 17.68C260.1 11.88 257.58 9.39004 251.71 9.39004C188.19 9.37004 124.66 9.37004 61.1401 9.39004C55.2201 9.39004 52.7601 11.81 52.7601 17.66C52.7301 59.46 52.7301 104.66 52.7601 146.46C52.7601 151.96 55.2601 154.42 60.7301 154.51C65.5901 154.58 70.4601 154.47 75.3201 154.59C79.9001 154.71 81.3901 156.29 81.4301 160.91C81.4901 167.43 81.4301 173.95 81.4701 180.46C81.4701 181.55 80.9601 183.16 82.0701 183.6C83.3301 184.09 83.7601 182.39 84.3901 181.56C90.2801 173.82 96.1801 166.09 101.92 158.24C103.81 155.65 106.06 154.43 109.25 154.48C115.25 154.58 121.25 154.47 127.25 154.53C130.63 154.57 131.02 155.1 131.03 159.03C131.04 163.23 130.68 163.75 127.21 163.81C122.97 163.88 118.71 164.04 114.49 163.78C110.91 163.56 108.57 164.8 106.44 167.73C99.0301 177.94 91.3501 187.97 83.7701 198.06C82.9601 199.14 82.1601 200.21 81.3101 201.26C79.8001 203.12 78.0401 204.56 75.4401 203.66C72.8901 202.77 72.1901 200.61 72.1701 198.2C72.1201 188.37 72.1301 178.54 72.1001 168.71C72.0901 164.24 71.7601 163.92 67.3701 163.87C64.4701 163.84 61.5701 163.93 58.6801 163.8C50.5001 163.44 44.0701 157.13 43.4701 148.97C43.4001 148.04 43.4001 147.11 43.4001 146.18C43.4001 104.49 43.4201 59.38 43.3701 17.69C43.3701 12.32 44.8901 7.74004 48.9301 4.09004C52.4701 0.900036 56.6701 3.58734e-05 61.2901 3.58734e-05C93.0501 0.0600359 220.1 0.0700359 251.86 3.58734e-05Z" fill="#003057"/>
<path d="M240.38 108.73C239.08 105 236.79 101.99 233.68 99.6101C228.99 96.0301 224.28 92.5001 219.55 88.9901C216.13 86.4501 212.26 85.1501 207.99 84.9501C203.36 85.0701 199.78 87.0401 196.96 90.8001C179.74 113.82 162.44 136.78 145.16 159.75C144.15 161.09 143.33 162.48 142.96 164.14C139.44 179.98 135.89 195.81 132.37 211.66C131.88 213.87 131.85 216.05 133.95 217.56C136 219.03 138.02 218.46 140.06 217.37C153.84 210.04 167.64 202.74 181.44 195.44C182.64 194.81 183.75 194.11 184.59 192.99C202.66 168.93 220.75 144.88 238.81 120.81C241.57 117.13 241.89 113.02 240.39 108.73H240.38ZM173.44 189.07C166.23 192.88 159.05 196.76 151.8 200.49C149.75 201.54 145.28 198.18 145.47 195.8C147.24 187.95 149.04 179.98 150.82 172C151.07 170.87 152.04 170.51 152.97 171.21C159.91 176.42 166.84 181.63 173.78 186.83C175.07 187.8 174.61 188.45 173.45 189.07H173.44ZM215.52 136.32C204.73 150.58 193.98 164.88 183.28 179.2C182.15 180.71 181.27 180.98 179.78 179.68C178.29 178.38 176.78 177.13 175.08 176.13C172.83 174.8 172.63 173.69 174.19 171.66C180.05 164.01 190.88 149.52 196.11 142.51C197.74 140.32 197.22 137.22 194.97 135.68C192.88 134.24 190.03 134.68 188.47 136.68C183.12 143.53 171.58 158.45 167.69 164.79C165.7 168.04 164.48 168.63 162.19 166.44C160.77 165.08 159.12 163.99 157.47 162.92C155.82 161.85 155.96 160.9 157.06 159.45C167.85 145.19 178.6 130.9 189.3 116.56C190.87 114.45 191.47 115.5 194.74 117.82C201.7 122.76 207.08 127.42 213.85 132.05C216.42 133.8 216.89 134.52 215.52 136.33V136.32ZM228.28 119.24C226.88 120.94 225.52 122.68 224.34 124.54C222.96 126.71 221.9 126.87 219.31 124.13C213.97 118.48 207.79 113.68 200.89 110.1C196.3 107.72 196.54 107.33 199.09 103.87C200.88 101.45 202.49 99.6701 204.02 97.2501C205.18 95.4201 206.24 94.3301 208.27 94.3101C210.36 94.4701 212.36 95.2501 214.14 96.5801C218.69 99.9901 223.29 103.34 227.77 106.84C232.93 110.88 232.84 113.71 228.28 119.23V119.24Z" fill="#003057"/>
<path d="M86.16 27.48L88.85 35.76H97.54L90.51 40.87L93.19 49.14L86.16 44.03L79.12 49.14L81.81 40.87L74.77 35.76H83.47L86.16 27.48Z" fill="#EB7100"/>
<path d="M113.54 27.48L116.22 35.76H124.92L117.88 40.87L120.57 49.14L113.54 44.03L106.5 49.14L109.19 40.87L102.15 35.76H110.85L113.54 27.48Z" fill="#EB7100"/>
<path d="M140.91 27.48L143.6 35.76H152.3L145.26 40.87L147.95 49.14L140.91 44.03L133.88 49.14L136.56 40.87L129.53 35.76H138.23L140.91 27.48Z" fill="#EB7100"/>
<path d="M168.29 27.48L170.98 35.76H179.68L172.64 40.87L175.33 49.14L168.29 44.03L161.26 49.14L163.94 40.87L156.91 35.76H165.6L168.29 27.48Z" fill="#EB7100"/>
<path d="M195.67 27.48L198.36 35.76H207.05L200.02 40.87L202.71 49.14L195.67 44.03L188.63 49.14L191.32 40.87L184.28 35.76H192.98L195.67 27.48Z" fill="#EB7100"/>
<path d="M233.04 64.45H76.99C75.7639 64.45 74.77 65.4439 74.77 66.67V71.57C74.77 72.796 75.7639 73.79 76.99 73.79H233.04C234.266 73.79 235.26 72.796 235.26 71.57V66.67C235.26 65.4439 234.266 64.45 233.04 64.45Z" fill="#003057"/>
<path d="M171.18 91.1801H76.99C75.7639 91.1801 74.77 92.174 74.77 93.4001V98.3001C74.77 99.5261 75.7639 100.52 76.99 100.52H171.18C172.406 100.52 173.4 99.5261 173.4 98.3001V93.4001C173.4 92.174 172.406 91.1801 171.18 91.1801Z" fill="#003057"/>
<path d="M148.13 118.08H76.99C75.7639 118.08 74.77 119.074 74.77 120.3V125.2C74.77 126.426 75.7639 127.42 76.99 127.42H148.13C149.356 127.42 150.35 126.426 150.35 125.2V120.3C150.35 119.074 149.356 118.08 148.13 118.08Z" fill="#003057"/>
<path d="M216.72 179.46C216.72 193.84 216.72 213.83 216.72 228.21C216.72 234.08 214.28 236.48 208.38 236.52C200.83 236.57 88.47 236.52 80.92 236.55C80.82 236.55 80.73 236.55 80.63 236.55C75.71 236.55 70.79 236.6 65.87 236.52C62.68 236.47 60.44 237.69 58.54 240.28C52.8 248.13 46.9 255.86 41.01 263.6C40.38 264.43 39.95 266.13 38.69 265.64C37.58 265.21 38.1 263.59 38.09 262.5C38.05 255.98 38.1 249.46 38.05 242.95C38.01 238.33 36.52 236.75 31.94 236.63C27.08 236.5 22.22 236.62 17.35 236.55C11.88 236.47 9.38 234 9.38 228.5C9.35 186.7 9.35 144.9 9.38 103.11C9.38 97.26 11.84 94.85 17.76 94.84C21.08 94.84 24.39 94.84 27.71 94.84V85.47C23.86 85.47 20.54 85.47 17.9 85.46C13.28 85.46 9.08 86.36 5.56 89.54C1.52 93.18 0 97.76 0 103.13C0.05 144.82 0.03 186.52 0.03 228.21C0.03 229.14 0.03 230.07 0.1 231C0.7 239.17 7.13 245.48 15.31 245.83C18.2 245.96 21.1 245.87 24 245.9C28.39 245.95 28.72 246.26 28.73 250.74C28.76 260.57 28.74 270.4 28.8 280.23C28.81 282.64 29.52 284.8 32.07 285.69C34.66 286.59 36.42 285.16 37.94 283.29C38.79 282.25 39.59 281.17 40.4 280.09C47.98 270 55.66 259.97 63.07 249.76C65.2 246.83 67.54 245.59 71.12 245.81C75.05 246.05 79.01 245.93 82.96 245.86C100.46 245.89 201.99 245.93 209.53 245.84C219.33 245.73 226.04 239.03 226.06 229.13C226.08 214.44 226.08 194.15 226.08 179.46H216.74H216.72Z" fill="#F4F6F8"/>
</g>
<defs>
<clipPath id="clip0_13_908">
<rect width="269.46" height="285.97" fill="white"/>
</clipPath>
</defs>
</svg>
